<?xml version="1.0" encoding="UTF-8" standalone="no"?>
<!-- Created with Inkscape (http://www.inkscape.org/) -->

<svg
   version="1.1"
   id="svg2"
   width="325"
   height="325"
   viewBox="0 0 325 325"
   xmlns="http://www.w3.org/2000/svg"
   xmlns:svg="http://www.w3.org/2000/svg">
  <defs
     id="defs6">
    <rect
       x="152.02795"
       y="347.89651"
       width="465.98337"
       height="97.580734"
       id="rect21828" />
  </defs>
  <path
     id="rect382"
     style="display:inline;fill:#3b4a51;fill-opacity:1;stroke-width:1.12684"
     d="M 223.77539,163 H 14.16992 v 138.50977 c 0,4.90876 3.95256,8.86132 8.86132,8.86132 h 191.88282 c 4.90876,0 8.86133,-3.95256 8.86133,-8.86132 z" />
  <path
     id="path16805"
     style="display:inline;fill:#596c76;stroke-width:1.12684"
     d="m 23.03124,14.628908 c -4.90876,0 -8.86132,3.952563 -8.86132,8.861328 V 163 H 223.77539 V 23.490236 c 0,-4.908765 -3.95257,-8.861328 -8.86133,-8.861328 z" />
  <rect
     style="display:inline;fill:#d7e9ff;fill-opacity:1;stroke-width:1.16564"
     id="rect384-1"
     width="142"
     height="105.5"
     x="47.972652"
     y="175.59357"
     ry="52.75"
     rx="52.75" />
  <rect
     style="display:inline;fill:#596c76;fill-opacity:1;stroke-width:1.7494"
     id="rect1867-5-7"
     width="19.189787"
     height="35.763454"
     x="136.13303"
     y="210.46184"
     ry="10.589408"
     rx="10.589408" />
  <rect
     style="fill:#596c76;fill-opacity:1;stroke-width:1.7494"
     id="rect1867-6"
     width="19.189787"
     height="35.763454"
     x="82.622498"
     y="210.46184"
     ry="10.589408"
     rx="10.589408" />
  <rect
     style="display:inline;fill:#edf5ff;fill-opacity:1;stroke-width:1.16564"
     id="rect384"
     width="142"
     height="105.5"
     x="47.972652"
     y="43.906441"
     ry="52.75"
     rx="52.75" />
  <rect
     style="display:inline;fill:#596c76;fill-opacity:1;stroke-width:1.7494"
     id="rect1867-5"
     width="19.189787"
     height="35.763454"
     x="136.13303"
     y="78.774712"
     ry="10.589408"
     rx="10.589408" />
  <rect
     style="fill:#596c76;fill-opacity:1;stroke-width:1.7494"
     id="rect1867"
     width="19.189787"
     height="35.763454"
     x="82.622498"
     y="78.774712"
     ry="10.589408"
     rx="10.589408" />
  <path
     id="path9284"
     style="color:#000000;display:inline;fill:#2b88d8;fill-opacity:1;stroke-linecap:round;-inkscape-stroke:none"
     d="m 310.83007,162.50065 h -18 c 0,21.06467 -8.28249,41.25019 -22.99804,56.11914 a 9,9 0 0 0 0.0664,12.72852 9,9 0 0 0 12.72656,-0.0664 c 18.06863,-18.25699 28.20508,-42.9988 28.20508,-68.78126 z" />
  <path
     id="path9282"
     style="color:#000000;display:inline;fill:#2b88d8;fill-opacity:1;stroke-linecap:round;-inkscape-stroke:none"
     d="m 276.02343,162.50065 h -18 c 0,11.55299 -4.58916,22.62355 -12.76758,30.79492 a 9,9 0 0 0 -0.006,12.72852 9,9 0 0 0 12.72657,0.006 c 11.55075,-11.54083 18.04701,-27.20538 18.04701,-43.52944 z" />
  <path
     id="path5111"
     style="fill:#2b88d8;fill-opacity:1;stroke-width:1.08824"
     d="m 242.16015,162.50065 h -55.47656 a 27.75,27.75 0 0 0 -0.0176,0.25 27.75,27.75 0 0 0 27.75,27.75 27.75,27.75 0 0 0 27.75,-27.75 27.75,27.75 0 0 0 -0.006,-0.25 z" />
  <path
     id="path13976"
     style="color:#000000;display:inline;fill:#71afe5;fill-opacity:1;stroke:none;stroke-linecap:round;stroke-opacity:1;-inkscape-stroke:none"
     d="m 276.27539,91.049477 a 9,9 0 0 0 -6.37696,2.60351 9,9 0 0 0 -0.0664,12.728523 c 14.71555,14.86895 22.99804,35.05447 22.99804,56.11914 h 18 c 0,-25.78246 -10.13645,-50.52428 -28.20508,-68.781253 a 9,9 0 0 0 -6.3496,-2.66992 z" />
  <path
     id="path13971"
     style="color:#000000;fill:#71afe5;fill-opacity:1;stroke:none;stroke-linecap:round;stroke-opacity:1;-inkscape-stroke:none"
     d="m 251.61132,116.33854 a 9,9 0 0 0 -6.36133,2.63867 9,9 0 0 0 0.006,12.72852 c 8.17842,8.17137 12.76758,19.24193 12.76758,30.79492 h 18 c 0,-16.32406 -6.49626,-31.98861 -18.04687,-43.5293 a 9,9 0 0 0 -6.36524,-2.63281 z" />
  <path
     id="path6618"
     style="display:inline;fill:#71afe5;fill-opacity:1;stroke:none;stroke-width:1.08824;stroke-opacity:1"
     d="m 214.41601,135.00065 a 27.75,27.75 0 0 0 -27.73242,27.5 h 55.47656 a 27.75,27.75 0 0 0 -27.74414,-27.5 z" />
</svg>
